<?xml version="1.0" encoding="UTF-8"?>
<svg id="_レイヤー_1" data-name="レイヤー 1" xmlns="http://www.w3.org/2000/svg" viewBox="0 0 1000 856.49">
  <defs>
    <style>
      .cls-1 {
        fill: #f5f0e1;
      }
    </style>
  </defs>
  <path class="cls-1" d="M734.97,545.15c2.49-4.39,3.74-9.18,3.74-14.37s-1.27-9.98-3.82-14.37c-2.54-4.39-6.01-7.94-10.41-10.63-4.39-2.7-9.38-4.04-14.97-4.04s-10.88,1.35-15.27,4.04c-4.39,2.69-7.84,6.24-10.33,10.63-2.5,4.39-3.74,9.18-3.74,14.37s1.27,9.98,3.82,14.37c2.54,4.39,6.01,7.94,10.41,10.63,4.39,2.69,9.43,4.04,15.12,4.04s10.73-1.35,15.12-4.04c4.39-2.7,7.84-6.24,10.33-10.63Z"/>
  <path class="cls-1" d="M531.5,640.98c0-5.49-1.27-9.81-3.82-12.95-2.55-3.14-5.94-5.37-10.18-6.66-4.24-1.3-8.91-1.95-14-1.95h-22.61c-.9,0-1.35.45-1.35,1.35v40.27c0,.9.45,1.35,1.35,1.35h22.61c8.78,0,15.65-1.67,20.59-5.02,4.94-3.34,7.41-8.81,7.41-16.39Z"/>
  <path class="cls-1" d="M771.05,654.3c-4.39-2.7-9.38-4.04-14.97-4.04s-10.88,1.35-15.27,4.04c-4.39,2.69-7.84,6.24-10.33,10.63-2.5,4.39-3.74,9.18-3.74,14.37s1.27,9.98,3.82,14.37c2.54,4.39,6.01,7.94,10.41,10.63,4.39,2.69,9.43,4.04,15.12,4.04s10.73-1.35,15.12-4.04c4.39-2.7,7.84-6.24,10.33-10.63,2.49-4.39,3.74-9.18,3.74-14.37s-1.27-9.98-3.82-14.37c-2.54-4.39-6.01-7.94-10.41-10.63Z"/>
  <path class="cls-1" d="M618.11,655.58c-4.04-3.94-9.71-5.91-16.99-5.91s-12.73,2.05-17.22,6.14c-4.49,4.09-7.29,9.48-8.38,16.17,0,.1-.03.18-.07.22-.05.05-.08.13-.08.23,0,.7.45,1.05,1.35,1.05h48.06c1.1,0,1.5-.5,1.2-1.5-1.2-6.99-3.82-12.45-7.86-16.39Z"/>
  <path class="cls-1" d="M993.59,305.95l-192.59-153.84c-6.22-4.97-15.06-4.97-21.28,0l-91.43,73.04c-8.54,6.82-8.54,19.81,0,26.64l36.87,29.45c12.59,10.06,5.48,30.37-10.64,30.37h-219.82c-16.12,0-23.23-20.3-10.64-30.37l120.55-96.3.06.05,102.07-81.54c8.54-6.82,8.54-19.81,0-26.64L615.24,3.73c-6.22-4.97-15.06-4.97-21.28,0l-91.51,73.09-286.84,229.15c-4.05,3.23-6.41,8.14-6.41,13.32v40.92c0,8.89-6.84,16.33-15.71,16.98C85.29,385.22,0,475.56,0,585.82s85.29,200.6,193.5,208.63c8.87.66,15.71,8.09,15.71,16.98v28.01c0,9.41,7.63,17.05,17.05,17.05h756.7c9.41,0,17.05-7.63,17.05-17.05V319.27c0-5.18-2.36-10.08-6.41-13.32ZM209.21,686.14c0,10.49-9.4,18.57-19.75,16.84-56.21-9.4-99.05-58.28-99.05-117.16s42.84-107.76,99.05-117.16c10.35-1.73,19.75,6.35,19.75,16.84v200.64ZM603.29,493.8c1.05-1,2.27-1.5,3.67-1.5h8.98c.9,0,1.35-.45,1.35-1.35v-25.6c0-1.6.55-2.94,1.65-4.04s2.45-1.65,4.04-1.65c1.5,0,2.79.55,3.89,1.65,1.1,1.1,1.65,2.45,1.65,4.04v25.6c0,.9.45,1.35,1.35,1.35h18.12c1.4,0,2.59.5,3.59,1.5,1,1,1.5,2.2,1.5,3.59s-.5,2.62-1.5,3.67c-1,1.05-2.2,1.57-3.59,1.57h-18.12c-.9,0-1.35.45-1.35,1.35v47.01c0,.3.12,1.12.38,2.47.25,1.35.92,2.65,2.02,3.89,1.1,1.25,2.89,1.87,5.39,1.87,2.89,0,4.94-.8,6.14-2.39,1.2-1.6,2-4.04,2.4-7.34.2-1.4.8-2.57,1.8-3.52,1-.95,2.14-1.42,3.44-1.42,1.7,0,3.14.6,4.34,1.8,1.2,1.2,1.7,2.65,1.5,4.34-1.5,13.18-8.04,19.76-19.61,19.76-3.79,0-7.11-.9-9.96-2.69-2.84-1.8-5.07-4.17-6.66-7.11-1.6-2.94-2.4-6.16-2.4-9.66v-47.01c0-.9-.45-1.35-1.35-1.35h-8.98c-1.4,0-2.62-.52-3.67-1.57-1.05-1.05-1.57-2.27-1.57-3.67s.52-2.59,1.57-3.59ZM519.97,595.31c1.1.8,2.25,1.2,3.44,1.2,6.39,0,11.68-4.69,15.87-14.07l5.39-12.28c.2-.6.2-1.2,0-1.8l-29.04-66.18c-.4-.6-.85-.9-1.35-.9-.7,0-1.4.07-2.1.22-.7.15-1.45.23-2.25.23-1.4,0-2.6-.52-3.59-1.57-1-1.05-1.5-2.27-1.5-3.67,0-1.6.55-2.92,1.65-3.97,1.1-1.05,2.4-1.47,3.89-1.27,2.89.2,5.26.35,7.11.45,1.85.1,3.62.15,5.32.15s3.49-.05,5.39-.15c1.89-.1,4.24-.25,7.04-.45,1.5-.2,2.79.22,3.89,1.27,1.1,1.05,1.65,2.37,1.65,3.97,0,1.5-.55,2.77-1.65,3.82-1.1,1.05-2.4,1.52-3.89,1.42-1-.2-2.1-.32-3.3-.38-1.2-.05-2.4-.12-3.59-.22h-.3c-1,0-1.25.5-.75,1.5l22.76,51.65c.3.6.6.9.9.9.5,0,.8-.3.9-.9l23.06-51.8c.1-.2.15-.45.15-.75,0-.5-.3-.75-.9-.75-1.3,0-2.62.07-3.97.22-1.35.15-2.62.33-3.82.52-1.5.1-2.8-.38-3.89-1.42-1.1-1.05-1.65-2.32-1.65-3.82,0-1.6.55-2.92,1.65-3.97,1.1-1.05,2.4-1.47,3.89-1.27,2.89.2,5.26.35,7.11.45,1.85.1,3.62.15,5.32.15s3.49-.05,5.39-.15c1.9-.1,4.24-.25,7.04-.45,1.5-.2,2.79.22,3.89,1.27,1.1,1.05,1.65,2.37,1.65,3.97,0,1.5-.55,2.77-1.65,3.82-1.1,1.05-2.4,1.52-3.89,1.42l-2.69-.3h-.3c-.5,0-.95.3-1.35.9l-36.83,82.04c-7.09,14.67-16.02,22.01-26.8,22.01-3.39,0-6.51-.78-9.36-2.32-2.85-1.55-5.12-3.59-6.81-6.14-1.7-2.54-2.54-5.32-2.54-8.31,0-3.2.9-5.82,2.69-7.86,1.8-2.05,4.09-3.07,6.89-3.07,2.4,0,4.42.87,6.06,2.62,1.65,1.74,2.47,3.82,2.47,6.21,0,1.4-.23,2.62-.67,3.67-.45,1.05-1.02,1.82-1.72,2.32-.8.7-.9,1.3-.3,1.8ZM431.64,569.63c-2.5.25-4.84.47-7.04.67-1.9.2-3.52-.33-4.87-1.57-1.35-1.25-2.02-2.82-2.02-4.72s.7-3.49,2.1-4.79c1.4-1.29,2.99-1.85,4.79-1.65l4.49.45h.3c.7,0,1.05-.4,1.05-1.2v-86.09c0-1-.45-1.4-1.35-1.2l-5.09.45c-1.7.1-3.17-.42-4.42-1.57-1.25-1.15-1.87-2.57-1.87-4.27s.62-3.14,1.87-4.34c1.25-1.2,2.72-1.7,4.42-1.5,2.89.3,5.41.52,7.56.67,2.15.15,4.22.22,6.21.22s4.09-.07,6.29-.22c2.19-.15,4.69-.38,7.49-.67,1.7-.2,3.14.3,4.34,1.5,1.2,1.2,1.8,2.65,1.8,4.34s-.6,3.12-1.8,4.27c-1.2,1.15-2.65,1.67-4.34,1.57-1.3-.2-2.62-.35-3.97-.45-1.35-.1-2.72-.2-4.12-.3-.9,0-1.35.45-1.35,1.35v85.64c0,.9.45,1.35,1.35,1.35h38.63c1,0,1.4-.45,1.2-1.35-.1-2-.25-3.99-.45-5.99-.2-2-.3-3.79-.3-5.39,0-1.7.6-3.12,1.8-4.27,1.2-1.15,2.64-1.72,4.34-1.72,1.8,0,3.32.65,4.57,1.95,1.25,1.3,1.82,2.8,1.72,4.49-.1,2.2-.25,4.57-.45,7.11-.2,2.54-.4,5.12-.6,7.71-.1,2.5-1.05,4.62-2.84,6.36-1.8,1.75-3.94,2.62-6.44,2.62h-45.52c-2.5.1-4.99.27-7.49.52ZM553.59,717.41c-1.25,1.15-2.72,1.67-4.42,1.57-.4-.1-2.02-.3-4.87-.6-2.85-.3-5.57-.45-8.16-.45-3.89,0-6.94-1.65-9.13-4.94l-25.15-38.33c-.3-.6-.85-.9-1.65-.9h-19.31c-.9,0-1.35.45-1.35,1.35v31.59c0,.9.45,1.35,1.35,1.35,1.4-.2,2.77-.35,4.12-.45,1.35-.1,2.67-.2,3.97-.3,1.7-.2,3.14.3,4.34,1.5,1.2,1.2,1.8,2.64,1.8,4.34s-.6,3.12-1.8,4.27c-1.2,1.15-2.65,1.67-4.34,1.57-2.9-.3-5.42-.52-7.56-.67-2.15-.15-4.22-.23-6.21-.23s-4.07.07-6.21.23c-2.15.15-4.67.37-7.56.67-1.7.1-3.17-.42-4.42-1.57-1.25-1.15-1.87-2.57-1.87-4.27s.57-3.09,1.72-4.19c1.15-1.1,2.52-1.65,4.12-1.65.8,0,1.67.05,2.62.15.95.1,1.92.2,2.92.3h.3c.7,0,1.05-.4,1.05-1.2v-86.84c0-.8-.35-1.2-1.05-1.2-1,0-1.97.1-2.92.3-.95.2-1.92.3-2.92.3-1.6,0-2.97-.6-4.12-1.8-1.15-1.2-1.72-2.59-1.72-4.19,0-1.89.67-3.44,2.02-4.64,1.35-1.2,2.92-1.7,4.72-1.5,2,.3,4.09.58,6.29.82,2.19.25,4.29.38,6.29.38l27.4.15c12.78.1,22.76,2.97,29.94,8.61,7.19,5.64,10.78,13.65,10.78,24.03,0,8.98-2.47,16.02-7.41,21.11-4.94,5.09-11.35,8.53-19.24,10.33-1.1.2-1.35.75-.75,1.65l21.71,33.24c.3.6.9.9,1.8.9,1.7-.1,3.47-.22,5.31-.38,1.85-.15,3.57-.32,5.17-.52,1.7-.2,3.17.3,4.42,1.5,1.25,1.2,1.87,2.64,1.87,4.34s-.63,3.12-1.87,4.27ZM635.48,681.63c-1.75,1.75-3.87,2.62-6.36,2.62h-52.4c-1,0-1.4.5-1.2,1.5.9,4.39,2.64,8.29,5.24,11.68,2.59,3.39,5.79,6.04,9.58,7.94,3.79,1.9,7.88,2.85,12.28,2.85,3.79,0,7.41-.82,10.85-2.47,3.44-1.65,6.41-3.87,8.91-6.66,1.5-1.5,3.09-2.25,4.79-2.25,1.1,0,2.14.35,3.14,1.05,1.6,1.1,2.4,2.6,2.4,4.49,0,1.3-.4,2.35-1.2,3.14-3.59,4.19-7.91,7.46-12.95,9.81-5.04,2.34-10.36,3.52-15.94,3.52-7.19,0-13.7-1.8-19.54-5.39-5.84-3.59-10.48-8.38-13.92-14.37-3.44-5.99-5.17-12.58-5.17-19.76s1.6-13.92,4.79-19.91c3.19-5.99,7.61-10.78,13.25-14.37,5.64-3.59,12-5.39,19.09-5.39s13.07,1.5,18.27,4.49c5.19,2.99,9.36,7.16,12.5,12.5,3.14,5.34,5.06,11.55,5.76,18.64.3,2.5-.43,4.62-2.17,6.36ZM702.48,699.22c-1.5,13.18-8.04,19.76-19.61,19.76-3.79,0-7.11-.9-9.96-2.69-2.84-1.8-5.07-4.17-6.66-7.11-1.6-2.94-2.4-6.16-2.4-9.66v-47.01c0-.9-.45-1.35-1.35-1.35h-8.98c-1.4,0-2.62-.52-3.67-1.57-1.05-1.05-1.57-2.27-1.57-3.67s.52-2.59,1.57-3.59c1.05-1,2.27-1.5,3.67-1.5h8.98c.9,0,1.35-.45,1.35-1.35v-25.6c0-1.6.55-2.94,1.65-4.04s2.45-1.65,4.04-1.65c1.5,0,2.79.55,3.89,1.65,1.1,1.1,1.65,2.45,1.65,4.04v25.6c0,.9.45,1.35,1.35,1.35h18.12c1.4,0,2.59.5,3.59,1.5,1,1,1.5,2.2,1.5,3.59s-.5,2.62-1.5,3.67c-1,1.05-2.2,1.57-3.59,1.57h-18.12c-.9,0-1.35.45-1.35,1.35v47.01c0,.3.12,1.12.38,2.47.25,1.35.92,2.65,2.02,3.89,1.1,1.25,2.89,1.87,5.39,1.87,2.89,0,4.94-.8,6.14-2.4,1.2-1.6,2-4.04,2.4-7.34.2-1.4.8-2.57,1.8-3.52,1-.95,2.14-1.42,3.44-1.42,1.7,0,3.14.6,4.34,1.8,1.2,1.2,1.7,2.65,1.5,4.34ZM693.79,567.39c-4.89-2.05-9.18-4.89-12.88-8.53-3.69-3.64-6.59-7.86-8.68-12.65-2.1-4.79-3.14-9.93-3.14-15.42s1.05-10.63,3.14-15.42c2.1-4.79,4.99-9.01,8.68-12.65,3.69-3.64,7.98-6.49,12.88-8.53,4.89-2.04,10.13-3.07,15.72-3.07s10.8,1.03,15.65,3.07c4.84,2.05,9.11,4.89,12.8,8.53,3.69,3.65,6.59,7.86,8.68,12.65,2.1,4.79,3.14,9.93,3.14,15.42s-1.05,10.63-3.14,15.42c-2.1,4.79-4.99,9.01-8.68,12.65-3.69,3.64-7.96,6.49-12.8,8.53-4.84,2.04-10.06,3.07-15.65,3.07s-10.83-1.02-15.72-3.07ZM793.21,694.73c-2.1,4.79-4.99,9.01-8.68,12.65-3.69,3.64-7.96,6.49-12.8,8.53-4.84,2.04-10.06,3.07-15.65,3.07s-10.83-1.02-15.72-3.07c-4.89-2.05-9.18-4.89-12.88-8.53-3.69-3.64-6.59-7.86-8.68-12.65-2.1-4.79-3.14-9.93-3.14-15.42s1.05-10.63,3.14-15.42c2.1-4.79,4.99-9.01,8.68-12.65,3.69-3.64,7.98-6.49,12.88-8.53,4.89-2.04,10.13-3.07,15.72-3.07s10.8,1.03,15.65,3.07c4.84,2.05,9.11,4.89,12.8,8.53,3.69,3.65,6.59,7.86,8.68,12.65,2.1,4.79,3.14,9.93,3.14,15.42s-1.05,10.63-3.14,15.42Z"/>
</svg>